<svg xmlns="http://www.w3.org/2000/svg" viewBox="0 0 497.73 215.4"><defs><style>.cls-1{fill:#f0f0f0;}</style></defs><g id="Layer_2" data-name="Layer 2"><g id="Layer_1-2" data-name="Layer 1"><path class="cls-1" d="M63.71,105.45a36.69,36.69,0,0,0-2-7.86,42.6,42.6,0,0,0-4.28-8.35,42.26,42.26,0,0,0-6.13-7.35,35.68,35.68,0,0,0-7.52-5.48,35,35,0,0,0-8.28-3.28A72.16,72.16,0,0,0,26,71.44c-3.05-.36-6.3-.67-9.73-1s-6.22-.57-8.37-.82S3.08,69,0,68.6l1.6,4.27q1.49,3.93,4.51,13c2.65,7.88,4.74,14.31,6.3,19.24,1,3.32,2.32,7.75,3.81,13.25,3.33.31,5.73.57,7.21.74l15.86,2a94,94,0,0,0,9.44.69,28.94,28.94,0,0,0,5.58-.36A13.5,13.5,0,0,0,58,120.05a10.87,10.87,0,0,0,3.73-3.19,11.69,11.69,0,0,0,2-4.82A21.24,21.24,0,0,0,63.71,105.45ZM44.92,108a6.23,6.23,0,0,1-4.45,2.17A30.6,30.6,0,0,1,33.6,110c-1.56-.19-3.09-.43-4.57-.72L19.78,81.17q3.76.26,6.58.57a26.25,26.25,0,0,1,8,2.09,18.14,18.14,0,0,1,6.05,4.68,23.38,23.38,0,0,1,4.42,7.54,21.17,21.17,0,0,1,1.48,6.8A7.3,7.3,0,0,1,44.92,108Z"/><path class="cls-1" d="M111.32,111.53q-2.11-7.11-2.86-9.16A14.7,14.7,0,0,0,104,95.92a22.45,22.45,0,0,0-7.16-3.85,42.66,42.66,0,0,0-8.83-2,89.32,89.32,0,0,0-18.52,0c.44,1.92.78,3.33,1,4.23s.53,2.53.93,4.89a39.86,39.86,0,0,1,15.31-1.6,10.16,10.16,0,0,1,4,1.2,4.42,4.42,0,0,1,2,2.28,2.29,2.29,0,0,1,.17.94,1.56,1.56,0,0,1-.32.83,2,2,0,0,1-.9.59,13.19,13.19,0,0,1-2.15.44c-1,.15-2.17.25-3.44.34a51.57,51.57,0,0,0-7.39.92,13.08,13.08,0,0,0-4.24,1.52,6.3,6.3,0,0,0-3,5.29,9.12,9.12,0,0,0,.61,3.3,18.74,18.74,0,0,0,3.86,5.84,19.53,19.53,0,0,0,6.51,4.68A29.55,29.55,0,0,0,91,128a39.47,39.47,0,0,0,6.19.25,68.15,68.15,0,0,1-.37-7.94,11.15,11.15,0,0,1-4.07.27A7.78,7.78,0,0,1,89,119.33a4.87,4.87,0,0,1-1.85-2.26,2.44,2.44,0,0,1-.19-1.41,1.87,1.87,0,0,1,.78-1.13,3.91,3.91,0,0,1,1.68-.78c.7-.17,1.67-.38,2.93-.61s2.13-.41,2.61-.53a19.8,19.8,0,0,0,2-.68q4,12.52,5,16.5,4.11.4,7.82.84c2.52.3,5.07.64,7.64,1Q113.42,118.64,111.32,111.53Z"/><path class="cls-1" d="M127.36,88.86l-1.48-4.5c-.17-.53-.34-1.14-.55-1.9-2.21-.21-4.78-.48-7.73-.84-2.15-.26-4.8-.59-8-1,.33.84.61,1.49.8,2,.61,1.68,1.39,4,2.34,6.86,2.84.3,5.49.57,7.94.87s4.87.61,7.48,1C127.82,90.34,127.55,89.54,127.36,88.86Zm10.28,30.26q-2.12-5.85-3.77-11.06c-1.12-3.48-2.3-7.48-3.59-12-3.45-.36-6.11-.66-8-.87q-3.06-.37-8.17-1c1.7,4.8,3.2,9,4.42,12.64s2.32,6.91,3.29,9.9,1.68,5.44,2.23,7.33,1.18,4.34,1.94,7.27c3.58.38,6.49.7,8.7,1s4.93.61,8.05,1C141.85,130.75,140.12,126.05,137.64,119.12Z"/><path class="cls-1" d="M160.83,131.53a118.69,118.69,0,0,1-5.29-30.83l-1-3.13-3.3-11.15c-2.87-.27-5.48-.57-7.86-.84-1.84-.23-4.57-.57-8.22-1.06l5.08,14.71,8.72,27.2,2.25,7.79,8.5,1c.77.11,1.6.19,2.44.3C161.68,134.18,161.25,132.85,160.83,131.53Z"/><path class="cls-1" d="M199.28,104.22l-7.44-.94-.4,9.71,0,6.38c0,.78,0,1.5,0,2.15a117.58,117.58,0,0,0,12.08,20.54l2-21.91,1.58-15.08C203.33,104.67,200.74,104.39,199.28,104.22Z"/><path class="cls-1" d="M275.55,135.8a16,16,0,0,0-1.18-2.42,16.44,16.44,0,0,0-1.67-2.32,28.1,28.1,0,0,0-2.52-2.61c-1-1-2.22-2-3.52-3s-2.49-1.9-3.56-2.63l-3.61-2.43c-2.55-1.7-4.44-3-5.66-3.83a36.22,36.22,0,0,1-3-2.32A13.59,13.59,0,0,1,249,112.5a5.81,5.81,0,0,1-.84-1.47,1.75,1.75,0,0,1,1-2.4,8.46,8.46,0,0,1,4.68-.47,37.1,37.1,0,0,1,5.33,1.14,56.19,56.19,0,0,1,7.27,2.68c-1.71-3.59-2.87-6.07-3.5-7.48s-1.31-3-2-4.68a99.84,99.84,0,0,0-15-3.12,38.48,38.48,0,0,0-6.34-.27,14.18,14.18,0,0,0-5.27,1.14,7.19,7.19,0,0,0-3.26,2.69,7.41,7.41,0,0,0-1,3.73,11.46,11.46,0,0,0,.77,4.28,19.84,19.84,0,0,0,1.86,3.6,24.61,24.61,0,0,0,2.93,3.48,44.53,44.53,0,0,0,4.53,3.85c.9.7,2.48,1.84,4.72,3.39l9.62,6.89a22.81,22.81,0,0,1,2.15,1.73,11.08,11.08,0,0,1,1.23,1.37,5.54,5.54,0,0,1,.65,1.22,1.74,1.74,0,0,1-1,2.53,10.69,10.69,0,0,1-5.08.3,37.21,37.21,0,0,1-6.3-1.44,66.85,66.85,0,0,1-8.76-3.45c1.6,3.16,3.56,7.37,5.83,12.62A117.18,117.18,0,0,0,260,148a36.23,36.23,0,0,0,7.52.15,12.72,12.72,0,0,0,5.79-1.9,6.54,6.54,0,0,0,2.93-4.34A11,11,0,0,0,275.55,135.8Z"/><path class="cls-1" d="M327.8,137.22a36.54,36.54,0,0,0-11.27-15.38,28.2,28.2,0,0,0-9.09-4.79,55.92,55.92,0,0,0-10.78-2.33c-3-.34-6-.57-8.85-.68s-6.87-.08-11.9.06q3.18,8.5,6.08,17.13t6.81,21.3c1.52,4.95,3,9.88,4.36,14.83,3.52.38,6.24.68,8.11.91,2.17.25,4.78.57,7.84,1-.91-2.4-2.13-5.94-3.71-10.6L302,148.49c1.54,1,2.8,1.77,3.79,2.31a38.32,38.32,0,0,0,3.58,1.71,34.08,34.08,0,0,0,4.26,1.48,29.94,29.94,0,0,0,4.11.8,13.71,13.71,0,0,0,6.51-.55,7.39,7.39,0,0,0,4-3.65,11.79,11.79,0,0,0,1.18-6.06A25.24,25.24,0,0,0,327.8,137.22Zm-14.65,2.67A3.93,3.93,0,0,1,311.6,143a5,5,0,0,1-3.54.69,10.83,10.83,0,0,1-4.24-1.55,16.48,16.48,0,0,1-4-3.5,18.55,18.55,0,0,1-2.89-5.14c-.25-.72-.56-1.67-.92-2.83s-.66-2.1-.82-2.8-.38-1.58-.57-2.63a20.84,20.84,0,0,1,5.71-.15,13.62,13.62,0,0,1,7.33,3.14,16,16,0,0,1,4.57,6.57A11.8,11.8,0,0,1,313.15,139.89Z"/><path class="cls-1" d="M374.19,142.55c-1.39-4.74-2.36-7.8-2.87-9.17a14.87,14.87,0,0,0-4.46-6.45,22.94,22.94,0,0,0-7.17-3.85,43,43,0,0,0-8.82-2,89.34,89.34,0,0,0-18.52,0l1,4.24c.21.9.52,2.52.94,4.88a40,40,0,0,1,15.3-1.6,10,10,0,0,1,4,1.2,4.58,4.58,0,0,1,2.07,2.28,3,3,0,0,1,.16,1,1.4,1.4,0,0,1-.33.82,2.1,2.1,0,0,1-.89.59,13.07,13.07,0,0,1-2.15.44c-1,.15-2.19.25-3.45.34a51.79,51.79,0,0,0-7.38.92,13.06,13.06,0,0,0-4.25,1.52,6,6,0,0,0-2.19,2.32,6.2,6.2,0,0,0-.82,3,9,9,0,0,0,.61,3.31,18.77,18.77,0,0,0,3.85,5.83,19.8,19.8,0,0,0,6.51,4.68,29.47,29.47,0,0,0,8.56,2.21,39.62,39.62,0,0,0,6.19.25,73.42,73.42,0,0,1-.38-7.92,11.71,11.71,0,0,1-2.34.32,12.18,12.18,0,0,1-1.73-.06,7.71,7.71,0,0,1-3.68-1.29,5,5,0,0,1-1.86-2.25,2.72,2.72,0,0,1-.19-1.41,2,2,0,0,1,.78-1.14,4.28,4.28,0,0,1,1.69-.78c.69-.17,1.66-.38,2.93-.61s2.12-.4,2.63-.53,1.14-.36,2-.67c2.72,8.34,4.38,13.84,5,16.49,2.76.28,5.35.57,7.81.85s5.08.63,7.67,1Q376.29,149.64,374.19,142.55Z"/><path class="cls-1" d="M419.21,159.82c-.48-2.55-.84-4.3-1.07-5.27a25.06,25.06,0,0,1-3,.64,29.28,29.28,0,0,1-3,.19,19.35,19.35,0,0,1-3.05-.11,17,17,0,0,1-5.19-1.52,12.85,12.85,0,0,1-4.25-3.24,15.76,15.76,0,0,1-2.76-4.85,9.46,9.46,0,0,1-.72-4.76,3.55,3.55,0,0,1,2.24-2.8,9.43,9.43,0,0,1,5-.48,43.29,43.29,0,0,1,10.6,3l-1.46-3.29c-.88-2-1.49-3.45-1.89-4.36s-.76-1.83-1.18-2.72l-.38-.86q-4.52-1.4-7.42-2c-2-.4-3.85-.72-5.71-.93a34.77,34.77,0,0,0-8.3-.11,9.26,9.26,0,0,0-5.75,2.83,9.36,9.36,0,0,0-2.28,6.38,23.21,23.21,0,0,0,1.65,8.55,35.87,35.87,0,0,0,5,9.15,30.09,30.09,0,0,0,6.72,6.42,31.08,31.08,0,0,0,8.07,4.18,37.56,37.56,0,0,0,7.78,1.7,48.1,48.1,0,0,0,11.5,0Z"/><path class="cls-1" d="M464.34,160.6a60.53,60.53,0,0,1-7.46,1,30.87,30.87,0,0,1-5.67-.13,20.17,20.17,0,0,1-8.07-2.71,12,12,0,0,1-5.18-6.16c-.1-.31-.23-.67-.36-1.05l27.45,3.2a26.18,26.18,0,0,0-1.24-4.59,27.17,27.17,0,0,0-3.64-6.7A29.64,29.64,0,0,0,446,133.28a43.89,43.89,0,0,0-8.87-2,29.82,29.82,0,0,0-8,.06,10.34,10.34,0,0,0-5.92,2.74,9.58,9.58,0,0,0-2.53,6.4,20.85,20.85,0,0,0,1.43,8.94,32.41,32.41,0,0,0,3.42,6.59,30.07,30.07,0,0,0,4.95,5.77,32.24,32.24,0,0,0,13.76,7.33,67.11,67.11,0,0,0,8.78,1.63c2.13.23,4.17.4,6.17.46s4.41,0,7.23-.23Q464.65,162.74,464.34,160.6Zm-28.51-14.68a14.88,14.88,0,0,1-.31-2.22,4.26,4.26,0,0,1,.23-1.6,3.1,3.1,0,0,1,.88-1.39,3.43,3.43,0,0,1,1.58-.8,6.35,6.35,0,0,1,2.15-.08,10.28,10.28,0,0,1,3.27,1,8.92,8.92,0,0,1,2.82,2.23,11.09,11.09,0,0,1,1.94,3.33c.11.3.23.65.36,1.07Z"/><path class="cls-1" d="M489.66,149.6a9.64,9.64,0,0,1,3.82-.16,20.14,20.14,0,0,1,4.25,1.05l-2.4-5.67c-.74-1.75-1.64-4-2.66-6.61a18.14,18.14,0,0,0-3.26-.74,10.66,10.66,0,0,0-2.76,0,6.42,6.42,0,0,0-2.26.63,7.05,7.05,0,0,0-1.7,1.16,12.47,12.47,0,0,0-1.6,2.11l-1.39-4.11c-2.81-.3-5.29-.57-7.46-.82-1.86-.22-4.36-.53-7.54-.95,1,2.63,1.89,4.84,2.55,6.63s1.3,3.48,1.89,5.17l3.12,9.29,4.87,16.13c2.88.28,5.58.59,8.13.89s5.12.61,7.67,1c-.82-1.9-1.46-3.48-1.94-4.74q-2-5.44-3.29-9.61a21.52,21.52,0,0,1-1.2-6,5.18,5.18,0,0,1,.89-3A4.15,4.15,0,0,1,489.66,149.6Z"/><path class="cls-1" d="M334.79,185.44A119,119,0,0,1,203.5,142.06l-.57,6.13a13.14,13.14,0,0,1-1.06,3.65,7.32,7.32,0,0,1-1.62,2,7,7,0,0,1-2.13,1.22,14.54,14.54,0,0,1-3.81.8,24,24,0,0,1-5.06-.1c-.8-.09-1.89-.28-3.26-.55s-2.49-.51-3.37-.7-2-.54-3.5-1c-3-5.94-4.89-9.62-5.71-11.08a35.62,35.62,0,0,0,4.93,2,21.19,21.19,0,0,0,3.43.78,8.38,8.38,0,0,0,2.57,0,4,4,0,0,0,1.69-.65,4,4,0,0,0,1-1.46,7.17,7.17,0,0,0,.59-1.72,7.39,7.39,0,0,0,0-2.15L172.5,117.52l-12.76-18c3.89.51,6.63.85,8.21,1l7.46.82c1.2,1.94,3.33,5.28,6.41,10.07s5.39,8.49,7,11.18c.88,1.48,1.9,3.35,3,5.61l-.27-2.82c0-.76-.06-1.63-.11-2.57,0-.41,0-.83,0-1.29A119.27,119.27,0,0,1,204.51,0a119.28,119.28,0,0,0-49,100.7l7.91,24.4,3.83,11-5.14-.65A119.08,119.08,0,0,0,369.64,168,118.28,118.28,0,0,1,334.79,185.44Z"/></g></g></svg>